PathFileType	4	(X/Y/Z)	D:/Dropbox/2017/2017-10 SOFAMEA OpenSim seminar/OpenSim workshop LucaClement/Hands-on_Paris2017_Luca/For Participants/3_Scaling/transformed_Static_for_scaling.trc	
DataRate	CameraRate	NumFrames	NumMarkers	Units	OrigDataRate	OrigDataStartFrame	OrigNumFrames	
120.00	120.00	7	47	mm	120.00	1	697	
Frame#	Time	Sternum			Neck			RShoulder			LShoulder			Xiphoid			Thoracic			RAsis			LAsis			RPsis			LPsis			LThighSuperior			LThighInferior			LThighLateral			LKneeLateral			LKneeMedial			LShankSuperior			LShankInferior			LShankLateral			LAnkleLateral			LAnkleMedial			RThighSuperior			RThighInferior			RThighLateral			RKneeLateral			RShankSuperior			RShankInferior			RShankLateral			RAnkleLateral			RankleMedial			RHeel			RToe			RMidfootMedial			RMidfootLateral			RHindfoot			RMidfootSuperior			RToeMedial			RToeLateral			LHeel			LToe			LMidfootMedial			LMidfootLateral			LHindfoot			LMidfootSuperior			LToeMedial			LToeLateral			RKneeMedial			Sacral			
		X1	Y1	Z1	X2	Y2	Z2	X3	Y3	Z3	X4	Y4	Z4	X5	Y5	Z5	X6	Y6	Z6	X7	Y7	Z7	X8	Y8	Z8	X9	Y9	Z9	X10	Y10	Z10	X11	Y11	Z11	X12	Y12	Z12	X13	Y13	Z13	X14	Y14	Z14	X15	Y15	Z15	X16	Y16	Z16	X17	Y17	Z17	X18	Y18	Z18	X19	Y19	Z19	X20	Y20	Z20	X21	Y21	Z21	X22	Y22	Z22	X23	Y23	Z23	X24	Y24	Z24	X25	Y25	Z25	X26	Y26	Z26	X27	Y27	Z27	X28	Y28	Z28	X29	Y29	Z29	X30	Y30	Z30	X31	Y31	Z31	X32	Y32	Z32	X33	Y33	Z33	X34	Y34	Z34	X35	Y35	Z35	X36	Y36	Z36	X37	Y37	Z37	X38	Y38	Z38	X39	Y39	Z39	X40	Y40	Z40	X41	Y41	Z41	X42	Y42	Z42	X43	Y43	Z43	X44	Y44	Z44	X45	Y45	Z45	X46	Y46	Z46	X47	Y47	Z47	

1	0.000	535.38849	1459.32581	-470.12784	381.53378	1572.72083	-452.16147	433.49289	1556.85022	-301.63074	407.18787	1557.31104	-598.12103	563.04987	1303.63354	-458.20386	293.79504	1352.09875	-450.35004	491.94205	1039.41748	-323.24414	503.68750	1045.13074	-604.91180	306.09280	1067.88391	-412.86951	304.47510	1067.64441	-515.08411	444.94681	874.44263	-659.11475	469.50800	643.31531	-640.85803	544.48181	747.47699	-588.01166	473.84857	558.26154	-643.48279	467.19272	565.37878	-501.58951	464.93362	406.09985	-661.41302	429.40714	205.16589	-643.31677	487.93536	294.60678	-602.75848	410.66888	124.44016	-643.59802	439.61746	125.32577	-558.18445	427.87070	846.58557	-287.15030	442.28424	610.36938	-310.81305	531.45056	764.16455	-340.37820	434.77191	545.50092	-309.42084	421.38986	448.74292	-303.99179	413.95593	194.46352	-335.91629	480.42670	318.64096	-367.94080	404.79431	120.15256	-339.12418	436.59268	137.46085	-425.70728	331.76465	79.39576	-394.68039	645.90723	62.98570	-351.71707	552.36304	49.15283	-414.21231	540.79559	43.55302	-295.56387	486.17752	43.65704	-309.85687	514.80450	110.40046	-365.48398	597.64246	50.25439	-403.94104	588.70081	48.24037	-301.53882	341.38327	83.32461	-591.18225	648.68903	73.76511	-642.83435	555.35864	50.72934	-578.48102	541.66846	47.08157	-694.93323	487.46066	46.43965	-680.07129	523.37598	112.56441	-625.66583	597.39880	51.35371	-587.08899	585.96155	56.76018	-690.19830	477.83398	543.18469	-446.12872	305.28394	1067.76416	-463.97681 
2	0.008	535.27832	1459.44995	-470.06320	381.37354	1572.70825	-452.13071	433.33969	1556.81030	-301.49115	406.96271	1557.18933	-598.17841	563.03003	1303.68542	-458.19757	293.71255	1352.06555	-450.18439	491.94305	1039.43835	-323.16296	503.65308	1045.17786	-604.87244	306.09610	1067.85046	-412.74683	304.43829	1067.62354	-514.98859	444.92227	874.45123	-659.08868	469.54889	643.33148	-640.83655	544.47174	747.48157	-587.96423	473.88004	558.25842	-643.48602	467.44754	565.18787	-501.50601	464.98990	406.09567	-661.41412	429.34354	205.00656	-643.36713	487.91730	294.59595	-602.73730	410.66940	124.44031	-643.59839	439.51831	125.25186	-558.01837	427.90598	846.58783	-287.05600	442.36038	610.35461	-310.76523	531.49060	764.15625	-340.35938	434.76489	545.33612	-309.67789	421.44778	448.74094	-303.94397	413.93762	194.44791	-335.89169	480.44220	318.61356	-367.96820	404.80881	120.16283	-339.10400	436.57031	137.44792	-425.68582	331.71527	79.29864	-394.82169	645.89172	63.02156	-351.72070	552.36438	49.15561	-414.21985	540.92639	43.37039	-295.72809	486.15677	43.66041	-309.84299	514.25366	110.86403	-364.59427	597.63715	50.24813	-403.94275	588.69324	48.27255	-301.52246	341.35147	83.31668	-591.11768	648.68158	73.71595	-642.81488	555.43469	50.70799	-578.48767	541.68213	47.07907	-694.94971	487.73141	46.49263	-680.04993	523.38513	112.48097	-625.62177	597.08221	51.44159	-587.10999	585.94757	56.75520	-690.18921	477.89978	543.17297	-446.11734	305.26721	1067.73706	-463.86771 
3	0.017	535.14008	1459.52161	-470.12048	381.22083	1572.70227	-452.11584	433.22223	1556.74500	-301.47220	406.76443	1557.06738	-598.21130	563.03668	1303.82410	-458.15106	293.66574	1352.02283	-450.11316	491.96759	1039.45996	-323.07581	503.60434	1045.15149	-604.79193	306.09900	1067.83105	-412.62814	304.40247	1067.60034	-514.89838	444.86572	874.43164	-658.97821	469.54037	643.31287	-640.78168	544.46326	747.49500	-587.94000	473.85776	558.26440	-643.45972	467.60135	565.09338	-501.48553	464.95920	406.10052	-661.34137	429.31476	205.08054	-643.35907	487.94470	294.57675	-602.71429	410.67978	124.44122	-643.58124	439.51480	125.24287	-557.99127	427.94153	846.57690	-286.96872	442.43930	610.31567	-310.68811	531.50586	764.14722	-340.30957	434.84988	545.32513	-309.60278	421.42026	448.78622	-303.65045	413.93747	194.43265	-335.87003	480.47314	318.62173	-367.91202	404.73465	119.99270	-339.28552	436.57468	137.45071	-425.69009	331.77145	79.38822	-394.67923	645.90112	63.08116	-351.70779	552.35474	49.15117	-414.14398	540.91107	43.38557	-295.72446	486.15964	43.66989	-309.83325	514.62128	110.54723	-365.65872	597.64203	50.30090	-403.96280	588.68951	48.26529	-301.53604	341.36655	83.34064	-591.13855	648.68280	73.73248	-642.81262	555.42914	50.69473	-578.50903	541.70013	47.10637	-694.96655	487.77063	46.49872	-680.05371	523.37598	112.56277	-625.66296	597.11292	51.47158	-587.07117	585.97601	56.76574	-690.19086	477.96024	543.16595	-446.08624	305.25073	1067.71570	-463.76324 
4	0.025	535.03149	1459.57996	-470.15457	381.06717	1572.68481	-452.08063	433.10773	1556.69385	-301.40884	406.56912	1556.94202	-598.25537	563.01221	1303.89160	-458.17941	293.60971	1351.97693	-450.06320	491.99265	1039.47095	-323.04004	503.36401	1045.20813	-604.55078	306.11032	1067.83215	-412.55124	304.37073	1067.56067	-514.79565	444.84750	874.43396	-658.92938	469.55139	643.30920	-640.72180	544.45770	747.50061	-587.87457	473.85562	558.22736	-643.41522	467.60141	565.11200	-501.42184	464.99841	406.10834	-661.34039	429.35254	205.01239	-643.37201	487.94955	294.56815	-602.69940	410.68005	124.44104	-643.58038	439.50449	125.24372	-558.01404	427.99072	846.56519	-286.86401	442.49918	610.32343	-310.63065	531.54871	764.15442	-340.24982	434.90643	545.31213	-309.56479	421.46661	448.79367	-303.59213	413.95676	194.42786	-335.88098	480.48697	318.59802	-367.89832	404.75500	120.00938	-339.25699	436.57950	137.45335	-425.69467	331.77252	79.39394	-394.66882	645.90082	63.10884	-351.71152	552.81018	49.51869	-414.71924	540.92609	43.39802	-295.72003	486.16031	43.66632	-309.82935	514.17053	111.13844	-364.82477	597.63586	50.28664	-403.97055	588.68414	48.26731	-301.53235	341.35413	83.29916	-591.16614	648.69281	73.74187	-642.83020	555.40155	50.72671	-578.50232	541.70172	47.10920	-694.96906	487.76700	46.49691	-680.04846	523.37659	112.56653	-625.66516	597.05664	51.45218	-587.07159	585.93988	56.75093	-690.18292	478.01514	543.18872	-446.02939	305.24054	1067.69641	-463.67346 
5	0.033	534.90875	1459.63965	-470.17001	380.96695	1572.65149	-452.09586	433.02570	1556.63000	-301.36084	406.34769	1556.83179	-598.28894	562.99017	1303.92090	-458.12360	293.53851	1352.00500	-450.08926	492.00769	1039.48413	-322.96066	503.54050	1045.18750	-604.66010	306.07721	1067.79187	-412.39911	304.33774	1067.52698	-514.70831	444.82755	874.44861	-658.86133	469.55072	643.29352	-640.67212	544.44244	747.48828	-587.83710	473.87723	558.23578	-643.36597	467.60880	565.09320	-501.35687	464.99500	406.10168	-661.31934	429.36270	204.99869	-643.35266	487.95636	294.59189	-602.67816	410.69287	124.46287	-643.60101	439.61560	125.32173	-558.15271	428.05630	846.60120	-286.75058	442.58499	610.31683	-310.51559	531.56512	764.13464	-340.22168	434.99008	545.30048	-309.51974	421.56720	448.70465	-303.78137	413.98932	194.39485	-335.87296	480.49597	318.58612	-367.93649	404.75116	119.98840	-339.25940	436.61121	137.49132	-425.70236	331.66086	79.24631	-394.75891	645.88611	63.09737	-351.74640	552.43073	49.29145	-414.34229	540.91870	43.36427	-295.75113	486.15805	43.66428	-309.83810	514.17609	110.98709	-364.44907	597.62799	50.28526	-403.97913	588.69287	48.27277	-301.52185	341.35663	83.34212	-591.14392	648.69379	73.74182	-642.82703	555.42285	50.71756	-578.51343	541.72131	47.09007	-694.95709	487.76886	46.49009	-680.05194	523.38019	112.57180	-625.69727	597.10822	51.47683	-587.12018	585.95941	56.73876	-690.18585	478.06830	543.14252	-446.01889	305.20746	1067.65942	-463.55371 
6	0.042	534.82361	1459.69629	-470.21378	380.81351	1572.70776	-452.02716	432.92126	1556.59094	-301.32684	406.11270	1556.71655	-598.25830	562.99689	1303.94214	-458.11771	293.47025	1351.94775	-450.01175	492.03394	1039.48792	-322.90512	503.32605	1045.24792	-604.47394	306.08261	1067.76306	-412.29611	304.34073	1067.49561	-514.64807	444.81342	874.41998	-658.81134	469.54169	643.31854	-640.64423	544.45746	747.50482	-587.78436	473.92017	558.25433	-643.36176	467.61459	565.09033	-501.35544	464.98602	406.10641	-661.28754	429.37201	205.00031	-643.35376	487.95050	294.55722	-602.68127	410.71390	124.43813	-643.59436	439.50180	125.23579	-557.97723	428.10391	846.57861	-286.69415	442.65182	610.30701	-310.44998	531.59229	764.13739	-340.14926	435.05905	545.27960	-309.48135	421.60843	448.69315	-303.74234	413.99222	194.38351	-335.84042	480.54007	318.55527	-367.93649	404.73834	119.99536	-339.22473	436.58817	137.45953	-425.70120	331.76657	79.36892	-394.67889	645.87274	63.10661	-351.75293	552.37640	49.17853	-414.19888	540.78058	43.54472	-295.61127	486.15857	43.67248	-309.84784	514.16669	110.90521	-364.50552	597.63654	50.30394	-403.96439	588.67163	48.30276	-301.50620	341.31024	83.38655	-591.05518	648.69183	73.74654	-642.82880	555.37958	50.72482	-578.48999	541.72162	47.08830	-694.95544	487.78519	46.49467	-680.04712	523.38013	112.57156	-625.69916	597.05927	51.46753	-587.10046	585.94269	56.73578	-690.17145	478.13742	543.11395	-445.99252	305.21167	1067.62939	-463.47211 
7	0.050	534.73627	1459.70740	-470.20834	380.72672	1572.59961	-451.98889	432.82190	1556.52612	-301.28162	405.93179	1556.58350	-598.32318	562.94727	1303.99292	-458.07553	293.40637	1351.87561	-449.92032	492.05713	1039.49976	-322.82776	503.51614	1045.20679	-604.57465	306.08920	1067.73633	-412.21381	304.33243	1067.46436	-514.55786	444.83621	874.43500	-658.79901	469.56485	643.30811	-640.61560	544.44061	747.50995	-587.73334	473.92615	558.25323	-643.34619	467.68930	565.03546	-501.31870	465.02203	406.10782	-661.26666	429.55350	205.04370	-643.38226	487.97562	294.55194	-602.64404	410.69727	124.44511	-643.58459	439.49640	125.23762	-557.96240	428.16522	846.54004	-286.68607	442.73456	610.28839	-310.39078	531.65186	764.11902	-340.10989	435.12994	545.34558	-309.31403	421.76834	448.62909	-303.66135	414.00424	194.38385	-335.83035	480.55875	318.52637	-367.91251	404.81390	120.12169	-339.09781	436.57782	137.45175	-425.69379	331.73129	79.34389	-394.57327	645.87830	63.11029	-351.74689	552.38702	49.19390	-414.21356	540.88495	43.37941	-295.72067	486.17618	43.67303	-309.84537	514.14709	110.96144	-364.45020	597.63190	50.31649	-403.96823	588.68549	48.30018	-301.51187	341.30319	83.39372	-591.03180	648.69763	73.74578	-642.81561	555.39148	50.71781	-578.51862	541.73566	47.11333	-694.95276	487.80325	46.52486	-680.11200	523.37982	112.55574	-625.66742	597.07764	51.47242	-587.02173	586.01074	56.76784	-690.19727	478.19846	543.07660	-445.94836	305.21082	1067.60034	-463.38583 
